<?xml version="1.0" encoding="UTF-8"?>
<svg width="500px" height="500px" viewBox="0 0 500 500" version="1.1" xmlns="http://www.w3.org/2000/svg" xmlns:xlink="http://www.w3.org/1999/xlink">
    <title>10 Nebel</title>
    <defs>
        <linearGradient x1="50%" y1="21.6606201%" x2="50%" y2="66.4217101%" id="linearGradient-1">
            <stop stop-color="#FBEC66" offset="0%"></stop>
            <stop stop-color="#FAFAFA" stop-opacity="0.11481097" offset="100%"></stop>
        </linearGradient>
        <linearGradient x1="50%" y1="3.10026385%" x2="50%" y2="66.9123104%" id="linearGradient-2">
            <stop stop-color="#000000" stop-opacity="0.400103802" offset="0%"></stop>
            <stop stop-color="#000000" stop-opacity="0" offset="100%"></stop>
        </linearGradient>
    </defs>
    <g id="10-Nebel" stroke="none" stroke-width="1" fill="none" fill-rule="evenodd">
        <path d="M250.5,353.5 C252.571068,353.5 254.446068,354.339466 255.803301,355.696699 C257.160534,357.053932 258,358.928932 258,361 L258,361 L258,423 C258,425.071068 257.160534,426.946068 255.803301,428.303301 C254.446068,429.660534 252.571068,430.5 250.5,430.5 L250.5,430.5 L249.5,430.5 C247.428932,430.5 245.553932,429.660534 244.196699,428.303301 C242.839466,426.946068 242,425.071068 242,423 L242,423 L242,361 C242,358.928932 242.839466,357.053932 244.196699,355.696699 C245.553932,354.339466 247.428932,353.5 249.5,353.5 L249.5,353.5 Z M167.00074,318.49926 C168.920157,318.49926 170.839574,319.231493 172.304041,320.695959 L172.304041,320.695959 L173.011147,321.403066 C174.475613,322.867532 175.207846,324.78695 175.207846,326.706367 C175.207846,328.625785 174.475613,330.545202 173.011147,332.009668 L173.011147,332.009668 L129.170527,375.850288 C127.706061,377.314755 125.786643,378.046988 123.867226,378.046988 C121.947809,378.046988 120.028391,377.314755 118.563925,375.850288 L118.563925,375.850288 L117.856818,375.143182 C116.392352,373.678716 115.660119,371.759298 115.660119,369.839881 C115.660119,367.920463 116.392352,366.001046 117.856818,364.53658 L117.856818,364.53658 L161.697439,320.695959 C163.161905,319.231493 165.081322,318.49926 167.00074,318.49926 Z M336.706367,317.792154 C338.625785,317.792154 340.545202,318.524387 342.009668,319.988853 L342.009668,319.988853 L385.850288,363.829473 C387.314755,365.293939 388.046988,367.213357 388.046988,369.132774 C388.046988,371.052191 387.314755,372.971609 385.850288,374.436075 L385.850288,374.436075 L385.143182,375.143182 C383.678716,376.607648 381.759298,377.339881 379.839881,377.339881 C377.920463,377.339881 376.001046,376.607648 374.53658,375.143182 L374.53658,375.143182 L330.695959,331.302561 C329.231493,329.838095 328.49926,327.918678 328.49926,325.99926 C328.49926,324.079843 329.231493,322.160426 330.695959,320.695959 L330.695959,320.695959 L331.403066,319.988853 C332.867532,318.524387 334.78695,317.792154 336.706367,317.792154 Z M251,147.5 C276.81901,147.5 300.193615,158.021092 317.113547,175.031024 C334.034437,192.041918 344.5,215.542312 344.5,241.5 C344.5,267.457688 334.034437,290.958082 317.113547,307.968976 C300.193615,324.978908 276.81901,335.5 251,335.5 C225.18099,335.5 201.806385,324.978908 184.886453,307.968976 C167.965563,290.958082 157.5,267.457688 157.5,241.5 C157.5,215.542312 167.965563,192.041918 184.886453,175.031024 C201.806385,158.021092 225.18099,147.5 251,147.5 Z M131,234 C133.071068,234 134.946068,234.839466 136.303301,236.196699 C137.660534,237.553932 138.5,239.428932 138.5,241.5 L138.5,241.5 L138.5,242.5 C138.5,244.571068 137.660534,246.446068 136.303301,247.803301 C134.946068,249.160534 133.071068,250 131,250 L131,250 L69,250 C66.9289322,250 65.0539322,249.160534 63.6966991,247.803301 C62.3394661,246.446068 61.5,244.571068 61.5,242.5 L61.5,242.5 L61.5,241.5 C61.5,239.428932 62.3394661,237.553932 63.6966991,236.196699 C65.0539322,234.839466 66.9289322,234 69,234 L69,234 Z M432,233 C434.071068,233 435.946068,233.839466 437.303301,235.196699 C438.660534,236.553932 439.5,238.428932 439.5,240.5 L439.5,240.5 L439.5,241.5 C439.5,243.571068 438.660534,245.446068 437.303301,246.803301 C435.946068,248.160534 434.071068,249 432,249 L432,249 L370,249 C367.928932,249 366.053932,248.160534 364.696699,246.803301 C363.339466,245.446068 362.5,243.571068 362.5,241.5 L362.5,241.5 L362.5,240.5 C362.5,238.428932 363.339466,236.553932 364.696699,235.196699 C366.053932,233.839466 367.928932,233 370,233 L370,233 Z M123.160119,105.660119 C125.079537,105.660119 126.998954,106.392352 128.46342,107.856818 L128.46342,107.856818 L172.304041,151.697439 C173.768507,153.161905 174.50074,155.081322 174.50074,157.00074 C174.50074,158.920157 173.768507,160.839574 172.304041,162.304041 L172.304041,162.304041 L171.596934,163.011147 C170.132468,164.475613 168.21305,165.207846 166.293633,165.207846 C164.374215,165.207846 162.454798,164.475613 160.990332,163.011147 L160.990332,163.011147 L117.149712,119.170527 C115.685245,117.706061 114.953012,115.786643 114.953012,113.867226 C114.953012,111.947809 115.685245,110.028391 117.149712,108.563925 L117.149712,108.563925 L117.856818,107.856818 C119.321284,106.392352 121.240702,105.660119 123.160119,105.660119 Z M379.132774,104.953012 C381.052191,104.953012 382.971609,105.685245 384.436075,107.149712 L384.436075,107.149712 L385.143182,107.856818 C386.607648,109.321284 387.339881,111.240702 387.339881,113.160119 C387.339881,115.079537 386.607648,116.998954 385.143182,118.46342 L385.143182,118.46342 L341.302561,162.304041 C339.838095,163.768507 337.918678,164.50074 335.99926,164.50074 C334.079843,164.50074 332.160426,163.768507 330.695959,162.304041 L330.695959,162.304041 L329.988853,161.596934 C328.524387,160.132468 327.792154,158.21305 327.792154,156.293633 C327.792154,154.374215 328.524387,152.454798 329.988853,150.990332 L329.988853,150.990332 L373.829473,107.149712 C375.293939,105.685245 377.213357,104.953012 379.132774,104.953012 Z M250.5,52.5 C252.571068,52.5 254.446068,53.3394661 255.803301,54.6966991 C257.160534,56.0539322 258,57.9289322 258,60 L258,60 L258,122 C258,124.071068 257.160534,125.946068 255.803301,127.303301 C254.446068,128.660534 252.571068,129.5 250.5,129.5 L250.5,129.5 L249.5,129.5 C247.428932,129.5 245.553932,128.660534 244.196699,127.303301 C242.839466,125.946068 242,124.071068 242,122 L242,122 L242,60 C242,57.9289322 242.839466,56.0539322 244.196699,54.6966991 C245.553932,53.3394661 247.428932,52.5 249.5,52.5 L249.5,52.5 Z" id="Shape" stroke="url(#linearGradient-2)" fill="url(#linearGradient-1)"></path>
        <rect id="Rectangle" stroke-opacity="0.395897072" stroke="#000000" fill="#FFFFFF" x="50.5" y="406.5" width="399" height="24" rx="8"></rect>
        <rect id="Rectangle-Copy-2" stroke-opacity="0.395897072" stroke="#000000" fill="#FFFFFF" x="50.5" y="288.5" width="399" height="24" rx="8"></rect>
        <rect id="Rectangle-Copy-4" stroke-opacity="0.395897072" stroke="#000000" fill="#FFFFFF" x="50.5" y="229.5" width="399" height="24" rx="8"></rect>
        <rect id="Rectangle-Copy-3" stroke-opacity="0.395897072" stroke="#000000" fill="#FFFFFF" x="50.5" y="347.5" width="399" height="24" rx="8"></rect>
    </g>
</svg>