<?xml version="1.0" encoding="UTF-8"?>
<svg width="500px" height="500px" viewBox="0 0 500 500" version="1.1" xmlns="http://www.w3.org/2000/svg" xmlns:xlink="http://www.w3.org/1999/xlink">
    <title>2 - wechselhaft</title>
    <g id="2---wechselhaft" stroke="none" stroke-width="1" fill="none" fill-rule="evenodd">
        <g id="Group" transform="translate(36.000000, 85.000000)" fill="#FBEC66" stroke="#979797">
            <ellipse id="Oval" cx="165.5" cy="165.5" rx="81.5" ry="82"></ellipse>
            <rect id="Rectangle" x="158" y="0.5" width="14" height="67" rx="7"></rect>
            <rect id="Rectangle-Copy" x="158" y="262.5" width="14" height="67" rx="7"></rect>
            <path d="M297,131.5 C298.932997,131.5 300.682997,132.283502 301.949747,133.550253 C303.216498,134.817003 304,136.567003 304,138.5 L304,138.5 L304,191.5 C304,193.432997 303.216498,195.182997 301.949747,196.449747 C300.682997,197.716498 298.932997,198.5 297,198.5 C295.067003,198.5 293.317003,197.716498 292.050253,196.449747 C290.783502,195.182997 290,193.432997 290,191.5 L290,191.5 L290,138.5 C290,136.567003 290.783502,134.817003 292.050253,133.550253 C293.317003,132.283502 295.067003,131.5 297,131.5 Z" id="Rectangle" transform="translate(297.000000, 165.000000) rotate(90.000000) translate(-297.000000, -165.000000) "></path>
            <path d="M34,131.5 C35.9329966,131.5 37.6829966,132.283502 38.9497475,133.550253 C40.2164983,134.817003 41,136.567003 41,138.5 L41,138.5 L41,191.5 C41,193.432997 40.2164983,195.182997 38.9497475,196.449747 C37.6829966,197.716498 35.9329966,198.5 34,198.5 C32.0670034,198.5 30.3170034,197.716498 29.0502525,196.449747 C27.7835017,195.182997 27,193.432997 27,191.5 L27,191.5 L27,138.5 C27,136.567003 27.7835017,134.817003 29.0502525,133.550253 C30.3170034,132.283502 32.0670034,131.5 34,131.5 Z" id="Rectangle-Copy" transform="translate(34.000000, 165.000000) rotate(90.000000) translate(-34.000000, -165.000000) "></path>
            <path d="M258.766868,38.5668987 C260.672143,38.5665266 262.397196,39.3384548 263.646024,40.5867947 C264.894852,41.8351346 265.667454,43.5598863 265.667826,45.4649656 L265.667826,45.4649656 L265.657449,98.59169 C265.657077,100.498035 264.884238,102.22386 263.634906,103.473192 C262.385574,104.722524 260.659749,105.495363 258.753404,105.495735 C256.848129,105.496107 255.123076,104.724179 253.874248,103.475839 C252.62542,102.227499 251.852818,100.502747 251.852446,98.5976681 L251.852446,98.5976681 L251.862823,45.4709438 C251.863196,43.5645986 252.636034,41.8387736 253.885366,40.5894417 C255.134698,39.3401098 256.860523,38.5672711 258.766868,38.5668987 Z" id="Rectangle" transform="translate(258.760136, 72.031317) rotate(45.000000) translate(-258.760136, -72.031317) "></path>
            <path d="M73.9887014,224.504265 C75.8939761,224.503893 77.6190295,225.275821 78.8678572,226.524161 C80.1166849,227.772501 80.889287,229.497253 80.8896592,231.402332 L80.8896592,231.402332 L80.8792821,284.529056 C80.8789098,286.435401 80.1060711,288.161226 78.8567392,289.410558 C77.6074073,290.65989 75.8815822,291.432729 73.9752371,291.433101 C72.0699624,291.433473 70.344909,290.661545 69.0960813,289.413205 C67.8472536,288.164865 67.0746515,286.440114 67.0742793,284.535034 L67.0742793,284.535034 L67.0846564,231.40831 C67.0850287,229.501965 67.8578674,227.77614 69.1071993,226.526808 C70.3565312,225.277476 72.0823563,224.504637 73.9887014,224.504265 Z" id="Rectangle-Copy" transform="translate(73.981969, 257.968683) rotate(45.000000) translate(-73.981969, -257.968683) "></path>
            <path d="M259.36644,223.888578 C261.274056,223.888951 263.000522,224.661659 264.250223,225.910872 C265.500054,227.160216 266.273004,228.886147 266.273376,230.792623 L266.273376,230.792623 L266.283753,283.916457 C266.284125,285.821732 265.512197,287.546785 264.263857,288.795613 C263.015517,290.04444 261.290766,290.817042 259.385686,290.817415 C257.476591,290.817042 255.750675,290.044253 254.501293,288.794872 C253.251961,287.54554 252.479123,285.819715 252.47875,283.91337 L252.47875,283.91337 L252.468373,230.789536 C252.468001,228.884261 253.239929,227.159208 254.488269,225.91038 C255.736609,224.661553 257.461361,223.888951 259.36644,223.888578 Z" id="Rectangle" transform="translate(259.376063, 257.352996) rotate(135.000000) translate(-259.376063, -257.352996) "></path>
            <path d="M73.3564191,39.1825854 C75.2640346,39.1829577 76.9905003,39.9556659 78.2402016,41.2048794 C79.4900325,42.4542226 80.2629825,44.180154 80.2633549,46.0866304 L80.2633549,46.0866304 L80.2737319,99.2104639 C80.2741041,101.115739 79.5021759,102.840792 78.253836,104.08962 C77.005496,105.338447 75.2807444,106.111049 73.3756649,106.111422 C71.4665702,106.111049 69.7406539,105.33826 68.4912721,104.088879 C67.2419402,102.839547 66.4691015,101.113722 66.4687291,99.2073766 L66.4687291,99.2073766 L66.4583521,46.0835431 C66.4579799,44.1782684 67.2299082,42.4532151 68.4782481,41.2043873 C69.726588,39.9555596 71.4513397,39.1829575 73.3564191,39.1825854 Z" id="Rectangle-Copy" transform="translate(73.366042, 72.647004) rotate(135.000000) translate(-73.366042, -72.647004) "></path>
        </g>
        <path d="M299.179943,222 C315.55374,222 330.824923,226.619414 343.705331,234.600192 C357.005137,242.840831 367.756274,254.664774 374.53847,268.685818 C374.62954,268.874089 374.719854,269.062675 374.812806,269.251469 C375.020446,269.250247 375.228289,269.249879 375.436334,269.250368 C395.486969,269.297485 413.632917,277.296957 426.76459,290.204508 C439.885658,303.101635 448,320.899512 448,340.556193 C448,355.073725 444.55123,370.319852 437.331731,382.266552 C431.20145,392.410834 422.343607,400.173351 410.542971,403 L410.542971,403 L184.579207,403 C173.300591,399.935994 165.121536,392.673459 159.561273,383.319577 C152.919342,372.146033 150,357.99992 150,344.369143 C150,325.390928 157.48296,308.112926 169.870334,296.084865 C181.83174,284.470416 198.365926,277.759717 217.127343,279.14378 C217.419345,279.165322 217.710526,279.188724 218.000365,279.213663 C218.057604,278.928167 218.116975,278.642636 218.17849,278.35708 C221.765166,261.707419 231.958762,248.135886 245.699669,238.488605 C260.820683,227.872371 280.235781,222 299.179943,222 Z" id="Path-Copy" stroke="#C4C4C4" stroke-width="2" fill="#FFFFFF"></path>
    </g>
</svg>