<?xml version="1.0" encoding="UTF-8"?>
<svg width="500px" height="500px" viewBox="0 0 500 500" version="1.1" xmlns="http://www.w3.org/2000/svg" xmlns:xlink="http://www.w3.org/1999/xlink">
    <title>3 - meist bewölkt</title>
    <g id="3---meist-bewölkt" stroke="none" stroke-width="1" fill="none" fill-rule="evenodd">
        <ellipse id="Oval" stroke-opacity="0.399475524" stroke="#000000" fill="#FBEC66" cx="185.5" cy="217" rx="70" ry="70.5"></ellipse>
        <rect id="Rectangle" stroke-opacity="0.399475524" stroke="#000000" fill="#FBEC66" x="178.5" y="75.5" width="12" height="57" rx="6"></rect>
        <rect id="Rectangle-Copy" stroke-opacity="0.399475524" stroke="#000000" fill="#FBEC66" x="178.5" y="300.5" width="12" height="57" rx="6"></rect>
        <path d="M297.5,188.5 C299.156854,188.5 300.656854,189.171573 301.742641,190.257359 C302.828427,191.343146 303.5,192.843146 303.5,194.5 L303.5,194.5 L303.5,239.5 C303.5,241.156854 302.828427,242.656854 301.742641,243.742641 C300.656854,244.828427 299.156854,245.5 297.5,245.5 C295.843146,245.5 294.343146,244.828427 293.257359,243.742641 C292.171573,242.656854 291.5,241.156854 291.5,239.5 L291.5,239.5 L291.5,194.5 C291.5,192.843146 292.171573,191.343146 293.257359,190.257359 C294.343146,189.171573 295.843146,188.5 297.5,188.5 Z" id="Rectangle" stroke-opacity="0.399475524" stroke="#000000" fill="#FBEC66" transform="translate(297.500000, 217.000000) rotate(90.000000) translate(-297.500000, -217.000000) "></path>
        <path d="M72.5,188.5 C74.1568542,188.5 75.6568542,189.171573 76.7426407,190.257359 C77.8284271,191.343146 78.5,192.843146 78.5,194.5 L78.5,194.5 L78.5,239.5 C78.5,241.156854 77.8284271,242.656854 76.7426407,243.742641 C75.6568542,244.828427 74.1568542,245.5 72.5,245.5 C70.8431458,245.5 69.3431458,244.828427 68.2573593,243.742641 C67.1715729,242.656854 66.5,241.156854 66.5,239.5 L66.5,239.5 L66.5,194.5 C66.5,192.843146 67.1715729,191.343146 68.2573593,190.257359 C69.3431458,189.171573 70.8431458,188.5 72.5,188.5 L72.5,188.5 Z" id="Rectangle-Copy" stroke-opacity="0.399475524" stroke="#000000" fill="#FBEC66" transform="translate(72.500000, 217.000000) rotate(90.000000) translate(-72.500000, -217.000000) "></path>
        <path d="M265.030981,108.137941 C266.644795,108.137221 268.106121,108.790696 269.164173,109.847805 C270.222225,110.904913 270.877004,112.365655 270.877724,113.979023 L270.877724,113.979023 L270.857394,159.553827 C270.856673,161.169749 270.20142,162.632602 269.142367,163.691655 C268.083315,164.750708 266.620461,165.40596 265.004539,165.406681 C263.390726,165.407401 261.9294,164.753926 260.871348,163.696817 C259.813295,162.639709 259.158516,161.178967 259.157796,159.5656 L259.157796,159.5656 L259.178127,113.990796 C259.178848,112.374873 259.8341,110.91202 260.893153,109.852967 C261.952206,108.793914 263.415059,108.138662 265.030981,108.137941 Z" id="Rectangle" stroke-opacity="0.399475524" stroke="#000000" fill="#FBEC66" transform="translate(265.017760, 136.772311) rotate(45.000000) translate(-265.017760, -136.772311) "></path>
        <path d="M106.490198,267.593319 C108.104011,267.592599 109.565337,268.246074 110.623389,269.303183 C111.681442,270.360291 112.336221,271.821033 112.336941,273.4344 L112.336941,273.4344 L112.31661,319.009204 C112.315889,320.625127 111.660637,322.08798 110.601584,323.147033 C109.542531,324.206086 108.079678,324.861338 106.463755,324.862059 C104.849942,324.862779 103.388616,324.209304 102.330564,323.152195 C101.272512,322.095087 100.617733,320.634345 100.617013,319.020977 L100.617013,319.020977 L100.637343,273.446173 C100.638064,271.830251 101.293317,270.367398 102.352369,269.308345 C103.411422,268.249292 104.874275,267.59404 106.490198,267.593319 Z" id="Rectangle-Copy" stroke-opacity="0.399475524" stroke="#000000" fill="#FBEC66" transform="translate(106.476977, 296.227689) rotate(45.000000) translate(-106.476977, -296.227689) "></path>
        <path d="M265.527348,267.065321 C267.145754,267.066042 268.609877,267.721039 269.669664,268.779882 C270.729678,269.838953 271.385142,271.302006 271.385863,272.918175 L271.385863,272.918175 L271.406193,318.487319 C271.406913,320.101132 270.753438,321.562458 269.696329,322.62051 C268.639221,323.678562 267.178479,324.333341 265.565111,324.334061 C263.94385,324.33334 262.480789,323.678201 261.421622,322.619035 C260.362569,321.559982 259.707317,320.097129 259.706596,318.481207 L259.706596,318.481207 L259.686266,272.912063 C259.685546,271.29825 260.339021,269.836924 261.396129,268.778872 C262.453238,267.72082 263.91398,267.066041 265.527348,267.065321 Z" id="Rectangle" stroke-opacity="0.399475524" stroke="#000000" fill="#FBEC66" transform="translate(265.546229, 295.699691) rotate(135.000000) translate(-265.546229, -295.699691) "></path>
        <path d="M105.929626,108.665939 C107.548031,108.66666 109.012155,109.321657 110.071942,110.3805 C111.131956,111.439571 111.78742,112.902624 111.788141,114.518793 L111.788141,114.518793 L111.808471,160.087937 C111.809191,161.70175 111.155716,163.163076 110.098607,164.221128 C109.041499,165.27918 107.580757,165.933959 105.967389,165.934679 C104.346128,165.933958 102.883067,165.27882 101.8239,164.219653 C100.764847,163.1606 100.109595,161.697747 100.108874,160.081825 L100.108874,160.081825 L100.088543,114.512681 C100.087823,112.898868 100.741299,111.437542 101.798407,110.37949 C102.855516,109.321438 104.316258,108.666659 105.929626,108.665939 Z" id="Rectangle-Copy" stroke-opacity="0.399475524" stroke="#000000" fill="#FBEC66" transform="translate(105.948507, 137.300309) rotate(135.000000) translate(-105.948507, -137.300309) "></path>
        <path d="M310.680543,125.5 C327.206352,125.5 342.619133,130.172653 355.619049,138.244588 C369.044628,146.580825 379.896911,158.542328 386.743192,172.725919 C407.447239,173.056267 425.777613,181.155215 439.042928,194.221822 C452.301568,207.281855 460.5,225.304814 460.5,245.209506 C460.5,259.898593 457.012165,275.322644 449.723378,287.409621 C443.491505,297.743918 434.476652,305.63734 422.473915,308.5 L422.473915,308.5 L195.630991,308.5 C184.148235,305.393336 175.819954,298.000233 170.164052,288.465249 C163.455964,277.156441 160.5,262.840456 160.5,249.043291 C160.5,229.817545 168.06805,212.316374 180.589647,200.132157 C192.688894,188.358911 209.413142,181.554372 228.391388,182.957405 C232.542755,165.697426 242.841339,151.944171 256.733191,142.170197 C271.986267,131.438498 291.57047,125.5 310.680543,125.5 Z" id="Path" stroke-opacity="0.396006337" stroke="#000000" fill="#D8D8D8"></path>
        <path d="M229.206335,180 C248.009952,180 265.547274,185.309106 280.339072,194.48118 C295.613296,203.952396 307.960319,217.54214 315.749347,233.656915 C315.840625,233.84576 315.931242,234.034881 316.023725,234.222504 C316.23142,234.221502 316.439292,234.221245 316.64734,234.221734 C339.678737,234.275897 360.522139,243.471857 375.605937,258.309521 C390.678897,273.136523 400,293.597695 400,316.195632 C400,332.882074 396.037344,350.405308 387.745737,364.136576 C380.692712,375.816697 370.498632,384.750297 356.919827,388 L356.919827,388 L97.7780366,388 C84.7967161,384.476362 75.3825825,376.115818 68.9843567,365.344045 C61.3553814,352.500236 58,336.23991 58,320.571147 C58,298.750835 66.5980254,278.885971 80.8294176,265.056843 C94.5736606,251.701095 113.572104,243.983642 135.130088,245.575225 C135.422195,245.596791 135.713586,245.619978 136.002785,245.643561 C136.060447,245.358527 136.119957,245.073462 136.181324,244.788376 C140.301948,225.645498 152.011326,210.040181 167.798305,198.947933 C185.160813,186.748686 207.453811,180 229.206335,180 Z" id="Path-Copy" stroke-opacity="0.402070586" stroke="#000000" stroke-width="2" fill="#FFFFFF"></path>
    </g>
</svg>