<?xml version="1.0" encoding="UTF-8"?>
<svg width="500px" height="500px" viewBox="0 0 500 500" version="1.1" xmlns="http://www.w3.org/2000/svg" xmlns:xlink="http://www.w3.org/1999/xlink">
    <title>4 - bedeckt</title>
    <g id="4---bedeckt" stroke="none" stroke-width="1" fill="none" fill-rule="evenodd">
        <path d="M201.680543,118.5 C218.206352,118.5 233.619133,123.172653 246.619049,131.244588 C260.044628,139.580825 270.896911,151.542328 277.743192,165.725919 C298.447239,166.056267 316.777613,174.155215 330.042928,187.221822 C343.301568,200.281855 351.5,218.304814 351.5,238.209506 C351.5,252.898593 348.012165,268.322644 340.723378,280.409621 C334.491505,290.743918 325.476652,298.63734 313.473915,301.5 L313.473915,301.5 L86.6309907,301.5 C75.1482352,298.393336 66.8199538,291.000233 61.1640515,281.465249 C54.4559639,270.156441 51.5,255.840456 51.5,242.043291 C51.5,222.817545 59.0680495,205.316374 71.5896471,193.132157 C83.6888944,181.358911 100.413142,174.554372 119.391388,175.957405 C123.542755,158.697426 133.841339,144.944171 147.733191,135.170197 C162.986267,124.438498 182.57047,118.5 201.680543,118.5 Z" id="Path" stroke-opacity="0.399694056" stroke="#000000" fill="#D8D8D8"></path>
        <path d="M277.206335,174 C296.009952,174 313.547274,179.309106 328.339072,188.48118 C343.613296,197.952396 355.960319,211.54214 363.749347,227.656915 C363.840625,227.84576 363.931242,228.034881 364.023725,228.222504 C364.23142,228.221502 364.439292,228.221245 364.64734,228.221734 C387.678737,228.275897 408.522139,237.471857 423.605937,252.309521 C438.678897,267.136523 448,287.597695 448,310.195632 C448,326.882074 444.037344,344.405308 435.745737,358.136576 C428.692712,369.816697 418.498632,378.750297 404.919827,382 L404.919827,382 L145.778037,382 C132.796716,378.476362 123.382583,370.115818 116.984357,359.344045 C109.355381,346.500236 106,330.23991 106,314.571147 C106,292.750835 114.598025,272.885971 128.829418,259.056843 C142.573661,245.701095 161.572104,237.983642 183.130088,239.575225 C183.422195,239.596791 183.713586,239.619978 184.002785,239.643561 C184.060447,239.358527 184.119957,239.073462 184.181324,238.788376 C188.301948,219.645498 200.011326,204.040181 215.798305,192.947933 C233.160813,180.748686 255.453811,174 277.206335,174 L277.206335,174 Z" id="Path-Copy" stroke-opacity="0.3964434" stroke="#000000" stroke-width="2" fill="#FFFFFF"></path>
    </g>
</svg>