<?xml version="1.0" encoding="UTF-8"?>
<svg width="500px" height="500px" viewBox="0 0 500 500" version="1.1" xmlns="http://www.w3.org/2000/svg" xmlns:xlink="http://www.w3.org/1999/xlink">
    <title>5 - schauer</title>
    <g id="5---schauer" stroke="none" stroke-width="1" fill="none" fill-rule="evenodd">
        <ellipse id="Oval" stroke-opacity="0.399994537" stroke="#000000" fill="#FBEC66" cx="183.5" cy="187" rx="70" ry="70.5"></ellipse>
        <rect id="Rectangle" stroke-opacity="0.399994537" stroke="#000000" fill="#FBEC66" x="176.5" y="45.5" width="12" height="57" rx="6"></rect>
        <rect id="Rectangle-Copy" stroke-opacity="0.399994537" stroke="#000000" fill="#FBEC66" x="176.5" y="270.5" width="12" height="57" rx="6"></rect>
        <path d="M295.5,158.5 C297.156854,158.5 298.656854,159.171573 299.742641,160.257359 C300.828427,161.343146 301.5,162.843146 301.5,164.5 L301.5,164.5 L301.5,209.5 C301.5,211.156854 300.828427,212.656854 299.742641,213.742641 C298.656854,214.828427 297.156854,215.5 295.5,215.5 C293.843146,215.5 292.343146,214.828427 291.257359,213.742641 C290.171573,212.656854 289.5,211.156854 289.5,209.5 L289.5,209.5 L289.5,164.5 C289.5,162.843146 290.171573,161.343146 291.257359,160.257359 C292.343146,159.171573 293.843146,158.5 295.5,158.5 Z" id="Rectangle" stroke-opacity="0.399994537" stroke="#000000" fill="#FBEC66" transform="translate(295.500000, 187.000000) rotate(90.000000) translate(-295.500000, -187.000000) "></path>
        <path d="M70.5,158.5 C72.1568542,158.5 73.6568542,159.171573 74.7426407,160.257359 C75.8284271,161.343146 76.5,162.843146 76.5,164.5 L76.5,164.5 L76.5,209.5 C76.5,211.156854 75.8284271,212.656854 74.7426407,213.742641 C73.6568542,214.828427 72.1568542,215.5 70.5,215.5 C68.8431458,215.5 67.3431458,214.828427 66.2573593,213.742641 C65.1715729,212.656854 64.5,211.156854 64.5,209.5 L64.5,209.5 L64.5,164.5 C64.5,162.843146 65.1715729,161.343146 66.2573593,160.257359 C67.3431458,159.171573 68.8431458,158.5 70.5,158.5 Z" id="Rectangle-Copy" stroke-opacity="0.399994537" stroke="#000000" fill="#FBEC66" transform="translate(70.500000, 187.000000) rotate(90.000000) translate(-70.500000, -187.000000) "></path>
        <path d="M263.030981,78.1379409 C264.644795,78.1372209 266.106121,78.7906962 267.164173,79.8478048 C268.222225,80.9049134 268.877004,82.3656554 268.877724,83.9790227 L268.877724,83.9790227 L268.857394,129.553827 C268.856673,131.169749 268.20142,132.632602 267.142367,133.691655 C266.083315,134.750708 264.620461,135.40596 263.004539,135.406681 C261.390726,135.407401 259.9294,134.753926 258.871348,133.696817 C257.813295,132.639709 257.158516,131.178967 257.157796,129.5656 L257.157796,129.5656 L257.178127,83.9907956 C257.178848,82.3748731 257.8341,80.9120199 258.893153,79.8529671 C259.952206,78.7939142 261.415059,78.1386618 263.030981,78.1379409 Z" id="Rectangle" stroke-opacity="0.399994537" stroke="#000000" fill="#FBEC66" transform="translate(263.017760, 106.772311) rotate(45.000000) translate(-263.017760, -106.772311) "></path>
        <path d="M104.490198,237.593319 C106.104011,237.592599 107.565337,238.246074 108.623389,239.303183 C109.681442,240.360291 110.336221,241.821033 110.336941,243.4344 L110.336941,243.4344 L110.31661,289.009204 C110.315889,290.625127 109.660637,292.08798 108.601584,293.147033 C107.542531,294.206086 106.079678,294.861338 104.463755,294.862059 C102.849942,294.862779 101.388616,294.209304 100.330564,293.152195 C99.2725117,292.095087 98.6177327,290.634345 98.6170127,289.020977 L98.6170127,289.020977 L98.6373432,243.446173 C98.6380641,241.830251 99.2933166,240.367398 100.352369,239.308345 C101.411422,238.249292 102.874275,237.59404 104.490198,237.593319 Z" id="Rectangle-Copy" stroke-opacity="0.399994537" stroke="#000000" fill="#FBEC66" transform="translate(104.476977, 266.227689) rotate(45.000000) translate(-104.476977, -266.227689) "></path>
        <path d="M263.527348,237.065321 C265.145754,237.066042 266.609877,237.721039 267.669664,238.779882 C268.729678,239.838953 269.385142,241.302006 269.385863,242.918175 L269.385863,242.918175 L269.406193,288.487319 C269.406913,290.101132 268.753438,291.562458 267.696329,292.62051 C266.639221,293.678562 265.178479,294.333341 263.565111,294.334061 C261.94385,294.33334 260.480789,293.678201 259.421622,292.619035 C258.362569,291.559982 257.707317,290.097129 257.706596,288.481207 L257.706596,288.481207 L257.686266,242.912063 C257.685546,241.29825 258.339021,239.836924 259.396129,238.778872 C260.453238,237.72082 261.91398,237.066041 263.527348,237.065321 Z" id="Rectangle" stroke-opacity="0.399994537" stroke="#000000" fill="#FBEC66" transform="translate(263.546229, 265.699691) rotate(135.000000) translate(-263.546229, -265.699691) "></path>
        <path d="M103.929626,78.6659388 C105.548031,78.6666597 107.012155,79.321657 108.071942,80.3805003 C109.131956,81.4395707 109.78742,82.902624 109.788141,84.5187935 L109.788141,84.5187935 L109.808471,130.087937 C109.809191,131.70175 109.155716,133.163076 108.098607,134.221128 C107.041499,135.27918 105.580757,135.933959 103.967389,135.934679 C102.346128,135.933958 100.883067,135.27882 99.8239001,134.219653 C98.7648473,133.1606 98.1095949,131.697747 98.1088739,130.081825 L98.1088739,130.081825 L98.0885434,84.5126815 C98.0878234,82.8988681 98.7412987,81.4375424 99.7984074,80.3794901 C100.855516,79.3214378 102.316258,78.6666588 103.929626,78.6659388 Z" id="Rectangle-Copy" stroke-opacity="0.399994537" stroke="#000000" fill="#FBEC66" transform="translate(103.948507, 107.300309) rotate(135.000000) translate(-103.948507, -107.300309) "></path>
        <path d="M308.680543,96 C325.109277,96 340.43168,100.644805 353.355297,108.669363 C366.700203,116.95551 377.487717,128.844813 384.292904,142.943269 C384.384282,143.132579 384.474902,143.322204 384.565498,143.509674 C384.773836,143.508445 384.98238,143.508075 385.191125,143.508567 C405.309258,143.555943 423.516203,151.599552 436.692052,164.578033 C449.858065,177.546826 458,195.443656 458,215.209506 C458,229.807646 454.539396,245.138397 447.295204,257.15142 C441.143977,267.351984 432.255968,275.1577 420.414931,278 L420.414931,278 L193.697634,278 C182.380329,274.919009 174.17338,267.615995 168.594088,258.210163 C161.929406,246.97453 159,232.749832 159,219.043291 C159,199.959573 166.508482,182.585454 178.93834,170.490505 C190.940032,158.812186 207.529857,152.064365 226.354524,153.456045 C226.647511,153.477705 226.939672,153.501235 227.228414,153.524122 C227.285469,153.239093 227.344633,152.954025 227.405918,152.668929 C231.004838,135.926945 241.233024,122.279945 255.020902,112.579125 C270.192631,101.90466 289.672831,96 308.680543,96 L308.680543,96 Z" id="Path" stroke-opacity="0.402616914" stroke="#000000" stroke-width="2" fill="#D8D8D8"></path>
        <path d="M227.206335,150 C246.009952,150 263.547274,155.309106 278.339072,164.48118 C293.613296,173.952396 305.960319,187.54214 313.749347,203.656915 C313.840625,203.84576 313.931242,204.034881 314.023725,204.222504 C314.23142,204.221502 314.439292,204.221245 314.64734,204.221734 C337.678737,204.275897 358.522139,213.471857 373.605937,228.309521 C388.678897,243.136523 398,263.597695 398,286.195632 C398,302.882074 394.037344,320.405308 385.745737,334.136576 C378.692712,345.816697 368.498632,354.750297 354.919827,358 L354.919827,358 L95.7780366,358 C82.7967161,354.476362 73.3825825,346.115818 66.9843567,335.344045 C59.3553814,322.500236 56,306.23991 56,290.571147 C56,268.750835 64.5980254,248.885971 78.8294176,235.056843 C92.5736606,221.701095 111.572104,213.983642 133.130088,215.575225 C133.422195,215.596791 133.713586,215.619978 134.002785,215.643561 C134.060447,215.358527 134.119957,215.073462 134.181324,214.788376 C138.301948,195.645498 150.011326,180.040181 165.798305,168.947933 C183.160813,156.748686 205.453811,150 227.206335,150 Z" id="Path-Copy" stroke-opacity="0.404938811" stroke="#000000" stroke-width="2" fill="#FFFFFF"></path>
        <path d="M307.5,383 C308.297985,383 309.1455,384.935874 310.267917,386.734086 C312.31731,390.017398 314.683904,394.772028 317.034616,400.017219 C323.025751,413.385356 329,429.970809 329,433.436011 C329,439.391366 326.593083,444.783171 322.700874,448.685978 C318.810631,452.586814 313.43644,455 307.5,455 C301.56356,455 296.189369,452.586814 292.299126,448.685978 C288.406917,444.783171 286,439.391366 286,433.436011 C286,430.618064 289.950562,419.124255 294.648239,407.739693 L295.030706,406.817033 L295.030706,406.817033 L295.416067,405.895893 C296.25388,403.902487 297.109406,401.927107 297.965277,400.017385 C300.316007,394.772154 302.682625,390.017481 304.732039,386.734136 C305.854474,384.935894 306.702005,383 307.5,383 Z" id="Path-Copy-5" stroke="#73B0C5" stroke-width="4" fill="#BDEAFF" transform="translate(307.500000, 419.000000) rotate(-9.000000) translate(-307.500000, -419.000000) "></path>
        <path d="M232.5,349 C233.297985,349 234.1455,350.935874 235.267917,352.734086 C237.31731,356.017398 239.683904,360.772028 242.034616,366.017219 C248.025751,379.385356 254,395.970809 254,399.436011 C254,405.391366 251.593083,410.783171 247.700874,414.685978 C243.810631,418.586814 238.43644,421 232.5,421 C226.56356,421 221.189369,418.586814 217.299126,414.685978 C213.406917,410.783171 211,405.391366 211,399.436011 C211,396.618064 214.950562,385.124255 219.648239,373.739693 L220.030706,372.817033 L220.030706,372.817033 L220.416067,371.895893 C221.25388,369.902487 222.109406,367.927107 222.965277,366.017385 C225.316007,360.772154 227.682625,356.017481 229.732039,352.734136 C230.854474,350.935894 231.702005,349 232.5,349 Z" id="Path-Copy-5" stroke="#73B0C5" stroke-width="4" fill="#BDEAFF" transform="translate(232.500000, 385.000000) rotate(-9.000000) translate(-232.500000, -385.000000) "></path>
    </g>
</svg>