<?xml version="1.0" encoding="UTF-8"?>
<svg width="500px" height="500px" viewBox="0 0 500 500" version="1.1" xmlns="http://www.w3.org/2000/svg" xmlns:xlink="http://www.w3.org/1999/xlink">
    <title>6 - regen</title>
    <g id="6---regen" stroke="none" stroke-width="1" fill="none" fill-rule="evenodd">
        <path d="M209.172745,78 C224.882818,78 239.534927,82.465588 251.893199,90.1803813 C264.655362,98.147308 274.971649,109.578703 281.479652,123.133988 C281.570615,123.323451 281.660788,123.513235 281.752427,123.702412 C281.960994,123.701094 282.169776,123.700681 282.378769,123.701175 C301.615574,123.74672 319.024723,131.47966 331.623302,143.956262 C344.21416,156.425216 352,173.632394 352,192.636318 C352,206.67289 348.690814,221.41404 341.762521,232.965 C335.883986,242.765788 327.391309,250.267428 316.075664,253 L316.075664,253 L99.1623446,253 C88.348129,250.038274 80.506555,243.020425 75.1748785,233.983695 C68.8009826,223.180492 66,209.503179 66,196.324253 C66,177.97673 73.1795107,161.272466 85.0660648,149.643977 C96.54039,138.418767 112.401163,131.932393 130.398757,133.270084 C130.692053,133.291883 130.98448,133.315654 131.274015,133.339426 C131.330735,133.053637 131.389651,132.767799 131.450775,132.481923 C134.892227,116.386371 144.672944,103.266272 157.857548,93.9400112 C172.366408,83.6770238 190.995512,78 209.172745,78 Z" id="Path" stroke-opacity="0.403381774" stroke="#000000" stroke-width="2" fill="#D8D8D8"></path>
        <path d="M280.197937,132 C298.228028,132 315.043909,137.104538 329.227212,145.923156 C343.873532,155.02966 355.712923,168.096147 363.181748,183.59037 C363.27292,183.779509 363.363403,183.968931 363.454015,184.157026 C363.662556,184.155946 363.871283,184.155651 364.080195,184.156144 C386.162824,184.208217 406.147512,193.049414 420.609912,207.314413 C435.062631,221.569864 444,241.242351 444,262.969131 C444,279.013325 440.200635,295.862262 432.249697,309.065088 C425.490308,320.289303 415.72168,328.875671 402.708673,332 L402.708673,332 L154.124241,332 C141.684704,328.612602 132.663799,320.577656 126.532218,310.226792 C119.216857,297.877558 116,282.243273 116,267.177961 C116,246.199413 124.243484,227.100597 137.888948,213.804864 C151.065598,200.96593 169.279445,193.547006 189.94718,195.077003 C190.244885,195.099042 190.541812,195.122842 190.836632,195.146345 C190.889704,194.855221 190.944886,194.564036 191.002193,194.272798 C194.627307,175.849463 206.03693,160.840376 221.279208,150.178239 C238.0106,138.47445 259.362706,132 280.197937,132 Z" id="Path-Copy" stroke-opacity="0.402015953" stroke="#000000" stroke-width="2" fill="#FFFFFF"></path>
        <path d="M279.5,304 C280.297985,304 281.1455,305.935874 282.267917,307.734086 C284.31731,311.017398 286.683904,315.772028 289.034616,321.017219 C295.025751,334.385356 301,350.970809 301,354.436011 C301,360.391366 298.593083,365.783171 294.700874,369.685978 C290.810631,373.586814 285.43644,376 279.5,376 C273.56356,376 268.189369,373.586814 264.299126,369.685978 C260.406917,365.783171 258,360.391366 258,354.436011 C258,351.618064 261.950562,340.124255 266.648239,328.739693 L267.030706,327.817033 L267.030706,327.817033 L267.416067,326.895893 C268.25388,324.902487 269.109406,322.927107 269.965277,321.017385 C272.316007,315.772154 274.682625,311.017481 276.732039,307.734136 C277.854474,305.935894 278.702005,304 279.5,304 Z" id="Path-Copy-2" stroke="#73B0C5" stroke-width="4" fill="#BDEAFF" transform="translate(279.500000, 340.000000) rotate(-9.000000) translate(-279.500000, -340.000000) "></path>
        <path d="M189.5,338 C190.297985,338 191.1455,339.935874 192.267917,341.734086 C194.31731,345.017398 196.683904,349.772028 199.034616,355.017219 C205.025751,368.385356 211,384.970809 211,388.436011 C211,394.391366 208.593083,399.783171 204.700874,403.685978 C200.810631,407.586814 195.43644,410 189.5,410 C183.56356,410 178.189369,407.586814 174.299126,403.685978 C170.406917,399.783171 168,394.391366 168,388.436011 C168,385.618064 171.950562,374.124255 176.648239,362.739693 L177.030706,361.817033 L177.030706,361.817033 L177.416067,360.895893 C178.25388,358.902487 179.109406,356.927107 179.965277,355.017385 C182.316007,349.772154 184.682625,345.017481 186.732039,341.734136 C187.854474,339.935894 188.702005,338 189.5,338 L189.5,338 Z" id="Path-Copy-4" stroke="#73B0C5" stroke-width="4" fill="#BDEAFF" transform="translate(189.500000, 374.000000) rotate(-9.000000) translate(-189.500000, -374.000000) "></path>
        <path d="M369.5,345 C370.297985,345 371.1455,346.935874 372.267917,348.734086 C374.31731,352.017398 376.683904,356.772028 379.034616,362.017219 C385.025751,375.385356 391,391.970809 391,395.436011 C391,401.391366 388.593083,406.783171 384.700874,410.685978 C380.810631,414.586814 375.43644,417 369.5,417 C363.56356,417 358.189369,414.586814 354.299126,410.685978 C350.406917,406.783171 348,401.391366 348,395.436011 C348,392.618064 351.950562,381.124255 356.648239,369.739693 L357.030706,368.817033 L357.030706,368.817033 L357.416067,367.895893 C358.25388,365.902487 359.109406,363.927107 359.965277,362.017385 C362.316007,356.772154 364.682625,352.017481 366.732039,348.734136 C367.854474,346.935894 368.702005,345 369.5,345 Z" id="Path-Copy-3" stroke="#73B0C5" stroke-width="4" fill="#BDEAFF" transform="translate(369.500000, 381.000000) rotate(-9.000000) translate(-369.500000, -381.000000) "></path>
    </g>
</svg>