<?xml version="1.0" encoding="UTF-8"?>
<svg width="500px" height="500px" viewBox="0 0 500 500" version="1.1" xmlns="http://www.w3.org/2000/svg" xmlns:xlink="http://www.w3.org/1999/xlink">
    <title>7 - schnee</title>
    <g id="7---schnee" stroke="none" stroke-width="1" fill="none" fill-rule="evenodd">
        <path d="M209.172745,78 C224.882818,78 239.534927,82.465588 251.893199,90.1803813 C264.655362,98.147308 274.971649,109.578703 281.479652,123.133988 C281.570615,123.323451 281.660788,123.513235 281.752427,123.702412 C281.960994,123.701094 282.169776,123.700681 282.378769,123.701175 C301.615574,123.74672 319.024723,131.47966 331.623302,143.956262 C344.21416,156.425216 352,173.632394 352,192.636318 C352,206.67289 348.690814,221.41404 341.762521,232.965 C335.883986,242.765788 327.391309,250.267428 316.075664,253 L316.075664,253 L99.1623446,253 C88.348129,250.038274 80.506555,243.020425 75.1748785,233.983695 C68.8009826,223.180492 66,209.503179 66,196.324253 C66,177.97673 73.1795107,161.272466 85.0660648,149.643977 C96.54039,138.418767 112.401163,131.932393 130.398757,133.270084 C130.692053,133.291883 130.98448,133.315654 131.274015,133.339426 C131.330735,133.053637 131.389651,132.767799 131.450775,132.481923 C134.892227,116.386371 144.672944,103.266272 157.857548,93.9400112 C172.366408,83.6770238 190.995512,78 209.172745,78 Z" id="Path" stroke-opacity="0.403381774" stroke="#000000" stroke-width="2" fill="#D8D8D8"></path>
        <path d="M280.197937,132 C298.228028,132 315.043909,137.104538 329.227212,145.923156 C343.873532,155.02966 355.712923,168.096147 363.181748,183.59037 C363.27292,183.779509 363.363403,183.968931 363.454015,184.157026 C363.662556,184.155946 363.871283,184.155651 364.080195,184.156144 C386.162824,184.208217 406.147512,193.049414 420.609912,207.314413 C435.062631,221.569864 444,241.242351 444,262.969131 C444,279.013325 440.200635,295.862262 432.249697,309.065088 C425.490308,320.289303 415.72168,328.875671 402.708673,332 L402.708673,332 L154.124241,332 C141.684704,328.612602 132.663799,320.577656 126.532218,310.226792 C119.216857,297.877558 116,282.243273 116,267.177961 C116,246.199413 124.243484,227.100597 137.888948,213.804864 C151.065598,200.96593 169.279445,193.547006 189.94718,195.077003 C190.244885,195.099042 190.541812,195.122842 190.836632,195.146345 C190.889704,194.855221 190.944886,194.564036 191.002193,194.272798 C194.627307,175.849463 206.03693,160.840376 221.279208,150.178239 C238.0106,138.47445 259.362706,132 280.197937,132 Z" id="Path-Copy" stroke-opacity="0.402015953" stroke="#000000" stroke-width="2" fill="#FFFFFF"></path>
        <path d="M314.698677,295.877863 L314.302333,317.324877 L335.749347,316.928533 L320.303761,331.813605 L335.749347,346.698677 L314.302333,346.302333 L314.698677,367.749347 L299.813605,352.303761 L284.928533,367.749347 L285.324877,346.302333 L263.877863,346.698677 L279.323449,331.813605 L263.877863,316.928533 L285.324877,317.324877 L284.928533,295.877863 L299.813605,311.323449 L314.698677,295.877863 Z" id="Star-Copy-3" stroke="#CECECE" stroke-width="3" fill="#FFFFFF" transform="translate(299.813605, 331.813605) rotate(10.000000) translate(-299.813605, -331.813605) "></path>
        <path d="M191.885072,341.064258 L191.488728,362.511272 L212.935742,362.114928 L197.490156,377 L212.935742,391.885072 L191.488728,391.488728 L191.885072,412.935742 L177,397.490156 L162.114928,412.935742 L162.511272,391.488728 L141.064258,391.885072 L156.509844,377 L141.064258,362.114928 L162.511272,362.511272 L162.114928,341.064258 L177,356.509844 L191.885072,341.064258 Z" id="Star-Copy-5" stroke="#CECECE" stroke-width="3" fill="#FFFFFF" transform="translate(177.000000, 377.000000) rotate(10.000000) translate(-177.000000, -377.000000) "></path>
        <path d="M385.086623,352.891026 L384.773144,369.854066 L401.736184,369.540587 L389.51984,381.313605 L401.736184,393.086623 L384.773144,392.773144 L385.086623,409.736184 L373.313605,397.51984 L361.540587,409.736184 L361.854066,392.773144 L344.891026,393.086623 L357.10737,381.313605 L344.891026,369.540587 L361.854066,369.854066 L361.540587,352.891026 L373.313605,365.10737 L385.086623,352.891026 Z" id="Star-Copy-2" stroke="#CECECE" stroke-width="2" fill="#FFFFFF" transform="translate(373.313605, 381.313605) rotate(10.000000) translate(-373.313605, -381.313605) "></path>
        <path d="M284.273018,392.077421 L283.959539,409.040461 L300.922579,408.726982 L288.706235,420.5 L300.922579,432.273018 L283.959539,431.959539 L284.273018,448.922579 L272.5,436.706235 L260.726982,448.922579 L261.040461,431.959539 L244.077421,432.273018 L256.293765,420.5 L244.077421,408.726982 L261.040461,409.040461 L260.726982,392.077421 L272.5,404.293765 L284.273018,392.077421 Z" id="Star-Copy-4" stroke="#CECECE" stroke-width="2" fill="#FFFFFF" transform="translate(272.500000, 420.500000) rotate(10.000000) translate(-272.500000, -420.500000) "></path>
    </g>
</svg>