<?xml version="1.0" encoding="UTF-8"?>
<svg width="500px" height="500px" viewBox="0 0 500 500" version="1.1" xmlns="http://www.w3.org/2000/svg" xmlns:xlink="http://www.w3.org/1999/xlink">
    <title>8 - schneeregen</title>
    <g id="8---schneeregen" stroke="none" stroke-width="1" fill="none" fill-rule="evenodd">
        <path d="M209.172745,78 C224.882818,78 239.534927,82.465588 251.893199,90.1803813 C264.655362,98.147308 274.971649,109.578703 281.479652,123.133988 C281.570615,123.323451 281.660788,123.513235 281.752427,123.702412 C281.960994,123.701094 282.169776,123.700681 282.378769,123.701175 C301.615574,123.74672 319.024723,131.47966 331.623302,143.956262 C344.21416,156.425216 352,173.632394 352,192.636318 C352,206.67289 348.690814,221.41404 341.762521,232.965 C335.883986,242.765788 327.391309,250.267428 316.075664,253 L316.075664,253 L99.1623446,253 C88.348129,250.038274 80.506555,243.020425 75.1748785,233.983695 C68.8009826,223.180492 66,209.503179 66,196.324253 C66,177.97673 73.1795107,161.272466 85.0660648,149.643977 C96.54039,138.418767 112.401163,131.932393 130.398757,133.270084 C130.692053,133.291883 130.98448,133.315654 131.274015,133.339426 C131.330735,133.053637 131.389651,132.767799 131.450775,132.481923 C134.892227,116.386371 144.672944,103.266272 157.857548,93.9400112 C172.366408,83.6770238 190.995512,78 209.172745,78 Z" id="Path" stroke-opacity="0.403381774" stroke="#000000" stroke-width="2" fill="#D8D8D8"></path>
        <path d="M280.197937,132 C298.228028,132 315.043909,137.104538 329.227212,145.923156 C343.873532,155.02966 355.712923,168.096147 363.181748,183.59037 C363.27292,183.779509 363.363403,183.968931 363.454015,184.157026 C363.662556,184.155946 363.871283,184.155651 364.080195,184.156144 C386.162824,184.208217 406.147512,193.049414 420.609912,207.314413 C435.062631,221.569864 444,241.242351 444,262.969131 C444,279.013325 440.200635,295.862262 432.249697,309.065088 C425.490308,320.289303 415.72168,328.875671 402.708673,332 L402.708673,332 L154.124241,332 C141.684704,328.612602 132.663799,320.577656 126.532218,310.226792 C119.216857,297.877558 116,282.243273 116,267.177961 C116,246.199413 124.243484,227.100597 137.888948,213.804864 C151.065598,200.96593 169.279445,193.547006 189.94718,195.077003 C190.244885,195.099042 190.541812,195.122842 190.836632,195.146345 C190.889704,194.855221 190.944886,194.564036 191.002193,194.272798 C194.627307,175.849463 206.03693,160.840376 221.279208,150.178239 C238.0106,138.47445 259.362706,132 280.197937,132 Z" id="Path-Copy" stroke-opacity="0.402015953" stroke="#000000" stroke-width="2" fill="#FFFFFF"></path>
        <path d="M335.5,304 C336.297985,304 337.1455,305.935874 338.267917,307.734086 C340.31731,311.017398 342.683904,315.772028 345.034616,321.017219 C351.025751,334.385356 357,350.970809 357,354.436011 C357,360.391366 354.593083,365.783171 350.700874,369.685978 C346.810631,373.586814 341.43644,376 335.5,376 C329.56356,376 324.189369,373.586814 320.299126,369.685978 C316.406917,365.783171 314,360.391366 314,354.436011 C314,351.618064 317.950562,340.124255 322.648239,328.739693 L323.030706,327.817033 L323.030706,327.817033 L323.416067,326.895893 C324.25388,324.902487 325.109406,322.927107 325.965277,321.017385 C328.316007,315.772154 330.682625,311.017481 332.732039,307.734136 C333.854474,305.935894 334.702005,304 335.5,304 Z" id="Path-Copy-2" stroke="#73B0C5" stroke-width="4" fill="#BDEAFF" transform="translate(335.500000, 340.000000) rotate(-9.000000) translate(-335.500000, -340.000000) "></path>
        <path d="M400.5,345 C401.297985,345 402.1455,346.935874 403.267917,348.734086 C405.31731,352.017398 407.683904,356.772028 410.034616,362.017219 C416.025751,375.385356 422,391.970809 422,395.436011 C422,401.391366 419.593083,406.783171 415.700874,410.685978 C411.810631,414.586814 406.43644,417 400.5,417 C394.56356,417 389.189369,414.586814 385.299126,410.685978 C381.406917,406.783171 379,401.391366 379,395.436011 C379,392.618064 382.950562,381.124255 387.648239,369.739693 L388.030706,368.817033 L388.030706,368.817033 L388.416067,367.895893 C389.25388,365.902487 390.109406,363.927107 390.965277,362.017385 C393.316007,356.772154 395.682625,352.017481 397.732039,348.734136 C398.854474,346.935894 399.702005,345 400.5,345 Z" id="Path-Copy-3" stroke="#73B0C5" stroke-width="4" fill="#BDEAFF" transform="translate(400.500000, 381.000000) rotate(-9.000000) translate(-400.500000, -381.000000) "></path>
        <path d="M201.885072,310.064258 L201.488728,331.511272 L222.935742,331.114928 L207.490156,346 L222.935742,360.885072 L201.488728,360.488728 L201.885072,381.935742 L187,366.490156 L172.114928,381.935742 L172.511272,360.488728 L151.064258,360.885072 L166.509844,346 L151.064258,331.114928 L172.511272,331.511272 L172.114928,310.064258 L187,325.509844 L201.885072,310.064258 Z" id="Star" stroke="#CECECE" stroke-width="3" fill="#FFFFFF" transform="translate(187.000000, 346.000000) rotate(10.000000) translate(-187.000000, -346.000000) "></path>
        <path d="M272.273018,367.077421 L271.959539,384.040461 L288.922579,383.726982 L276.706235,395.5 L288.922579,407.273018 L271.959539,406.959539 L272.273018,423.922579 L260.5,411.706235 L248.726982,423.922579 L249.040461,406.959539 L232.077421,407.273018 L244.293765,395.5 L232.077421,383.726982 L249.040461,384.040461 L248.726982,367.077421 L260.5,379.293765 L272.273018,367.077421 Z" id="Star-Copy" stroke="#CECECE" stroke-width="2" fill="#FFFFFF" transform="translate(260.500000, 395.500000) rotate(10.000000) translate(-260.500000, -395.500000) "></path>
    </g>
</svg>