<?xml version="1.0" encoding="UTF-8"?>
<svg width="500px" height="500px" viewBox="0 0 500 500" version="1.1" xmlns="http://www.w3.org/2000/svg" xmlns:xlink="http://www.w3.org/1999/xlink">
    <title>0 - wolkenlos copy</title>
    <g id="0---wolkenlos-copy" stroke="none" stroke-width="1" fill="none" fill-rule="evenodd">
        <path d="M246.5,127.5 C258.148708,127.5 269.431184,129.018809 280.147137,131.864272 C253.881028,139.615671 231.198221,155.327593 215.0929,176.097554 C199.022088,196.823013 189.5,222.584452 189.5,250.5 C189.5,278.415294 199.021915,304.176519 215.092065,324.901915 C231.198015,345.67348 253.882015,361.386345 280.142916,369.13749 C269.429709,371.98139 258.147946,373.5 246.5,373.5 C211.428051,373.5 179.675693,359.731414 156.69176,337.468545 C133.713688,315.211354 119.5,284.463736 119.5,250.5 C119.5,216.536264 133.713688,185.788646 156.69176,163.531455 C179.675693,141.268586 211.428051,127.5 246.5,127.5 L246.5,127.5 Z" id="Combined-Shape" stroke="#979797" fill="#FBEC66"></path>
        <path d="M348.5,144.129776 L357.719478,162.810478 L378.334856,165.806068 L363.417428,180.346966 L366.938955,200.879045 L348.5,191.185112 L330.061045,200.879045 L333.582572,180.346966 L318.665144,165.806068 L339.280522,162.810478 L348.5,144.129776 Z" id="Star" stroke="#979797" fill="#FBEC66"></path>
        <path d="M293.5,186.129776 L299.780551,198.855563 L313.824291,200.896238 L303.662146,210.801881 L306.061103,224.788875 L293.5,218.185112 L280.938897,224.788875 L283.337854,210.801881 L273.175709,200.896238 L287.219449,198.855563 L293.5,186.129776 Z" id="Star-Copy-6" stroke="#979797" fill="#FBEC66"></path>
    </g>
</svg>