<?xml version="1.0" encoding="UTF-8"?>
<svg width="500px" height="500px" viewBox="0 0 500 500" version="1.1" xmlns="http://www.w3.org/2000/svg" xmlns:xlink="http://www.w3.org/1999/xlink">
    <title>1- heiter copy</title>
    <g id="1--heiter-copy" stroke="none" stroke-width="1" fill="none" fill-rule="evenodd">
        <g id="Group" transform="translate(119.000000, 127.000000)" fill="#FBEC66" stroke="#979797">
            <path d="M127.5,0.5 C139.148708,0.5 150.431184,2.0188092 161.147137,4.86427172 C134.881028,12.6156707 112.198221,28.3275931 96.0929004,49.0975542 C80.0220881,69.8230129 70.5,95.5844522 70.5,123.5 C70.5,151.415294 80.0219155,177.176519 96.0920652,197.901915 C112.198015,218.67348 134.882015,234.386345 161.142916,242.13749 C150.429709,244.98139 139.147946,246.5 127.5,246.5 C92.4280506,246.5 60.6756932,232.731414 37.6917603,210.468545 C14.7136879,188.211354 0.5,157.463736 0.5,123.5 C0.5,89.5362636 14.7136879,58.7886463 37.6917603,36.5314546 C60.6756932,14.2685863 92.4280506,0.5 127.5,0.5 Z" id="Combined-Shape-Copy"></path>
            <path d="M229.5,17.1297757 L238.719478,35.8104777 L259.334856,38.8060676 L244.417428,53.3469662 L247.938955,73.8790446 L229.5,64.1851121 L211.061045,73.8790446 L214.582572,53.3469662 L199.665144,38.8060676 L220.280522,35.8104777 L229.5,17.1297757 Z" id="Star-Copy"></path>
            <path d="M174.5,59.1297757 L180.780551,71.8555627 L194.824291,73.8962375 L184.662146,83.8018812 L187.061103,97.7888746 L174.5,91.1851121 L161.938897,97.7888746 L164.337854,83.8018812 L154.175709,73.8962375 L168.219449,71.8555627 L174.5,59.1297757 Z" id="Star-Copy-7"></path>
        </g>
        <path d="M318.614564,286 C328.964766,286 338.617858,289.007829 346.759768,294.203719 C355.17185,299.572023 361.971173,307.275199 366.260816,316.408949 C366.351143,316.60128 366.440272,316.794062 366.529232,316.986646 C366.740333,316.98427 366.951773,316.983334 367.163542,316.983847 C379.826423,317.014495 391.285411,322.219564 399.578313,330.6151 C407.872579,339.012015 413,350.600196 413,363.397504 C413,372.858409 410.821966,382.795555 406.253601,390.581652 C402.409499,397.13335 396.86479,402.160741 389.469167,404 L389.469167,404 L245.704615,404 C238.644009,402.009048 233.527096,397.311321 230.042836,391.274264 C225.841426,383.994627 224,374.7775 224,365.897798 C224,353.547466 228.723377,342.300913 236.551063,334.472606 C244.092419,326.930652 254.516459,322.571446 266.345486,323.470234 C266.646555,323.49311 266.946209,323.519215 267.24415,323.548186 C267.293604,323.252767 267.346663,322.957159 267.403365,322.661389 C269.481672,311.820457 276.027085,302.991782 284.764577,296.718545 C294.377096,289.817068 306.644487,286 318.614564,286 Z" id="Path-Copy" stroke-opacity="0.404501748" stroke="#000000" stroke-width="2" fill="#FFFFFF"></path>
    </g>
</svg>