<?xml version="1.0" encoding="UTF-8"?>
<svg width="500px" height="500px" viewBox="0 0 500 500" version="1.1" xmlns="http://www.w3.org/2000/svg" xmlns:xlink="http://www.w3.org/1999/xlink">
    <title>2 - wechselhaft copy</title>
    <g id="2---wechselhaft-copy" stroke="none" stroke-width="1" fill="none" fill-rule="evenodd">
        <g id="Group-Copy" transform="translate(119.000000, 127.000000)" fill="#FBEC66" stroke="#979797">
            <path d="M127.5,0.5 C139.148708,0.5 150.431184,2.0188092 161.147137,4.86427172 C134.881028,12.6156707 112.198221,28.3275931 96.0929004,49.0975542 C80.0220881,69.8230129 70.5,95.5844522 70.5,123.5 C70.5,151.415294 80.0219155,177.176519 96.0920652,197.901915 C112.198015,218.67348 134.882015,234.386345 161.142916,242.13749 C150.429709,244.98139 139.147946,246.5 127.5,246.5 C92.4280506,246.5 60.6756932,232.731414 37.6917603,210.468545 C14.7136879,188.211354 0.5,157.463736 0.5,123.5 C0.5,89.5362636 14.7136879,58.7886463 37.6917603,36.5314546 C60.6756932,14.2685863 92.4280506,0.5 127.5,0.5 Z" id="Combined-Shape-Copy"></path>
            <path d="M229.5,17.1297757 L238.719478,35.8104777 L259.334856,38.8060676 L244.417428,53.3469662 L247.938955,73.8790446 L229.5,64.1851121 L211.061045,73.8790446 L214.582572,53.3469662 L199.665144,38.8060676 L220.280522,35.8104777 L229.5,17.1297757 Z" id="Star-Copy"></path>
            <path d="M174.5,59.1297757 L180.780551,71.8555627 L194.824291,73.8962375 L184.662146,83.8018812 L187.061103,97.7888746 L174.5,91.1851121 L161.938897,97.7888746 L164.337854,83.8018812 L154.175709,73.8962375 L168.219449,71.8555627 L174.5,59.1297757 Z" id="Star-Copy-7"></path>
        </g>
        <path d="M299.179943,222 C315.55374,222 330.824923,226.619414 343.705331,234.600192 C357.005137,242.840831 367.756274,254.664774 374.53847,268.685818 C374.62954,268.874089 374.719854,269.062675 374.812806,269.251469 C375.020446,269.250247 375.228289,269.249879 375.436334,269.250368 C395.486969,269.297485 413.632917,277.296957 426.76459,290.204508 C439.885658,303.101635 448,320.899512 448,340.556193 C448,355.073725 444.55123,370.319852 437.331731,382.266552 C431.20145,392.410834 422.343607,400.173351 410.542971,403 L410.542971,403 L184.579207,403 C173.300591,399.935994 165.121536,392.673459 159.561273,383.319577 C152.919342,372.146033 150,357.99992 150,344.369143 C150,325.390928 157.48296,308.112926 169.870334,296.084865 C181.83174,284.470416 198.365926,277.759717 217.127343,279.14378 C217.419345,279.165322 217.710526,279.188724 218.000365,279.213663 C218.057604,278.928167 218.116975,278.642636 218.17849,278.35708 C221.765166,261.707419 231.958762,248.135886 245.699669,238.488605 C260.820683,227.872371 280.235781,222 299.179943,222 Z" id="Path-Copy" stroke-opacity="0.404529065" stroke="#000000" stroke-width="2" fill="#FFFFFF"></path>
    </g>
</svg>