<?xml version="1.0" encoding="UTF-8"?>
<svg width="500px" height="500px" viewBox="0 0 500 500" version="1.1" xmlns="http://www.w3.org/2000/svg" xmlns:xlink="http://www.w3.org/1999/xlink">
    <title>3 - meist bewölkt copy</title>
    <g id="3---meist-bewölkt-copy" stroke="none" stroke-width="1" fill="none" fill-rule="evenodd">
        <path d="M225.5,94.5 C237.148708,94.5 248.431184,96.0188092 259.147137,98.8642717 C232.881028,106.615671 210.198221,122.327593 194.0929,143.097554 C178.022088,163.823013 168.5,189.584452 168.5,217.5 C168.5,245.415294 178.021915,271.176519 194.092065,291.901915 C210.198015,312.67348 232.882015,328.386345 259.142916,336.13749 C248.429709,338.98139 237.147946,340.5 225.5,340.5 C190.428051,340.5 158.675693,326.731414 135.69176,304.468545 C112.713688,282.211354 98.5,251.463736 98.5,217.5 C98.5,183.536264 112.713688,152.788646 135.69176,130.531455 C158.675693,108.268586 190.428051,94.5 225.5,94.5 L225.5,94.5 Z" id="Combined-Shape-Copy" stroke="#979797" fill="#FBEC66"></path>
        <path d="M272.5,153.129776 L278.780551,165.855563 L292.824291,167.896238 L282.662146,177.801881 L285.061103,191.788875 L272.5,185.185112 L259.938897,191.788875 L262.337854,177.801881 L252.175709,167.896238 L266.219449,165.855563 L272.5,153.129776 Z" id="Star-Copy-7" stroke="#979797" fill="#FBEC66"></path>
        <path d="M310.680543,125.5 C327.206352,125.5 342.619133,130.172653 355.619049,138.244588 C369.044628,146.580825 379.896911,158.542328 386.743192,172.725919 C407.447239,173.056267 425.777613,181.155215 439.042928,194.221822 C452.301568,207.281855 460.5,225.304814 460.5,245.209506 C460.5,259.898593 457.012165,275.322644 449.723378,287.409621 C443.491505,297.743918 434.476652,305.63734 422.473915,308.5 L422.473915,308.5 L195.630991,308.5 C184.148235,305.393336 175.819954,298.000233 170.164052,288.465249 C163.455964,277.156441 160.5,262.840456 160.5,249.043291 C160.5,229.817545 168.06805,212.316374 180.589647,200.132157 C192.688894,188.358911 209.413142,181.554372 228.391388,182.957405 C232.542755,165.697426 242.841339,151.944171 256.733191,142.170197 C271.986267,131.438498 291.57047,125.5 310.680543,125.5 Z" id="Path" stroke-opacity="0.396006337" stroke="#000000" fill="#D8D8D8"></path>
        <path d="M229.206335,180 C248.009952,180 265.547274,185.309106 280.339072,194.48118 C295.613296,203.952396 307.960319,217.54214 315.749347,233.656915 C315.840625,233.84576 315.931242,234.034881 316.023725,234.222504 C316.23142,234.221502 316.439292,234.221245 316.64734,234.221734 C339.678737,234.275897 360.522139,243.471857 375.605937,258.309521 C390.678897,273.136523 400,293.597695 400,316.195632 C400,332.882074 396.037344,350.405308 387.745737,364.136576 C380.692712,375.816697 370.498632,384.750297 356.919827,388 L356.919827,388 L97.7780366,388 C84.7967161,384.476362 75.3825825,376.115818 68.9843567,365.344045 C61.3553814,352.500236 58,336.23991 58,320.571147 C58,298.750835 66.5980254,278.885971 80.8294176,265.056843 C94.5736606,251.701095 113.572104,243.983642 135.130088,245.575225 C135.422195,245.596791 135.713586,245.619978 136.002785,245.643561 C136.060447,245.358527 136.119957,245.073462 136.181324,244.788376 C140.301948,225.645498 152.011326,210.040181 167.798305,198.947933 C185.160813,186.748686 207.453811,180 229.206335,180 Z" id="Path-Copy" stroke-opacity="0.402070586" stroke="#000000" stroke-width="2" fill="#FFFFFF"></path>
    </g>
</svg>