<?xml version="1.0" encoding="UTF-8"?>
<svg width="500px" height="500px" viewBox="0 0 500 500" version="1.1" xmlns="http://www.w3.org/2000/svg" xmlns:xlink="http://www.w3.org/1999/xlink">
    <title>5 - schauer copy</title>
    <g id="5---schauer-copy" stroke="none" stroke-width="1" fill="none" fill-rule="evenodd">
        <rect id="Rectangle-Copy" stroke-opacity="0.399994537" stroke="#000000" fill="#FBEC66" x="176.5" y="270.5" width="12" height="57" rx="6"></rect>
        <path d="M308.680543,96 C325.109277,96 340.43168,100.644805 353.355297,108.669363 C366.700203,116.95551 377.487717,128.844813 384.292904,142.943269 C384.384282,143.132579 384.474902,143.322204 384.565498,143.509674 C384.773836,143.508445 384.98238,143.508075 385.191125,143.508567 C405.309258,143.555943 423.516203,151.599552 436.692052,164.578033 C449.858065,177.546826 458,195.443656 458,215.209506 C458,229.807646 454.539396,245.138397 447.295204,257.15142 C441.143977,267.351984 432.255968,275.1577 420.414931,278 L420.414931,278 L193.697634,278 C182.380329,274.919009 174.17338,267.615995 168.594088,258.210163 C161.929406,246.97453 159,232.749832 159,219.043291 C159,199.959573 166.508482,182.585454 178.93834,170.490505 C190.940032,158.812186 207.529857,152.064365 226.354524,153.456045 C226.647511,153.477705 226.939672,153.501235 227.228414,153.524122 C227.285469,153.239093 227.344633,152.954025 227.405918,152.668929 C231.004838,135.926945 241.233024,122.279945 255.020902,112.579125 C270.192631,101.90466 289.672831,96 308.680543,96 L308.680543,96 Z" id="Path" stroke-opacity="0.402616914" stroke="#000000" stroke-width="2" fill="#D8D8D8"></path>
        <path d="M307.5,383 C308.297985,383 309.1455,384.935874 310.267917,386.734086 C312.31731,390.017398 314.683904,394.772028 317.034616,400.017219 C323.025751,413.385356 329,429.970809 329,433.436011 C329,439.391366 326.593083,444.783171 322.700874,448.685978 C318.810631,452.586814 313.43644,455 307.5,455 C301.56356,455 296.189369,452.586814 292.299126,448.685978 C288.406917,444.783171 286,439.391366 286,433.436011 C286,430.618064 289.950562,419.124255 294.648239,407.739693 L295.030706,406.817033 L295.030706,406.817033 L295.416067,405.895893 C296.25388,403.902487 297.109406,401.927107 297.965277,400.017385 C300.316007,394.772154 302.682625,390.017481 304.732039,386.734136 C305.854474,384.935894 306.702005,383 307.5,383 Z" id="Path-Copy-5" stroke="#73B0C5" stroke-width="4" fill="#BDEAFF" transform="translate(307.500000, 419.000000) rotate(-9.000000) translate(-307.500000, -419.000000) "></path>
        <path d="M232.5,349 C233.297985,349 234.1455,350.935874 235.267917,352.734086 C237.31731,356.017398 239.683904,360.772028 242.034616,366.017219 C248.025751,379.385356 254,395.970809 254,399.436011 C254,405.391366 251.593083,410.783171 247.700874,414.685978 C243.810631,418.586814 238.43644,421 232.5,421 C226.56356,421 221.189369,418.586814 217.299126,414.685978 C213.406917,410.783171 211,405.391366 211,399.436011 C211,396.618064 214.950562,385.124255 219.648239,373.739693 L220.030706,372.817033 L220.030706,372.817033 L220.416067,371.895893 C221.25388,369.902487 222.109406,367.927107 222.965277,366.017385 C225.316007,360.772154 227.682625,356.017481 229.732039,352.734136 C230.854474,350.935894 231.702005,349 232.5,349 Z" id="Path-Copy-5" stroke="#73B0C5" stroke-width="4" fill="#BDEAFF" transform="translate(232.500000, 385.000000) rotate(-9.000000) translate(-232.500000, -385.000000) "></path>
        <path d="M226.5,81.5 C238.148708,81.5 249.431184,83.0188092 260.147137,85.8642717 C233.881028,93.6156707 211.198221,109.327593 195.0929,130.097554 C179.022088,150.823013 169.5,176.584452 169.5,204.5 C169.5,232.415294 179.021915,258.176519 195.092065,278.901915 C211.198015,299.67348 233.882015,315.386345 260.142916,323.13749 C249.429709,325.98139 238.147946,327.5 226.5,327.5 C191.428051,327.5 159.675693,313.731414 136.69176,291.468545 C113.713688,269.211354 99.5,238.463736 99.5,204.5 C99.5,170.536264 113.713688,139.788646 136.69176,117.531455 C159.675693,95.2685863 191.428051,81.5 226.5,81.5 Z" id="Combined-Shape-Copy-2" stroke="#979797" fill="#FBEC66"></path>
        <path d="M227.206335,150 C246.009952,150 263.547274,155.309106 278.339072,164.48118 C293.613296,173.952396 305.960319,187.54214 313.749347,203.656915 C313.840625,203.84576 313.931242,204.034881 314.023725,204.222504 C314.23142,204.221502 314.439292,204.221245 314.64734,204.221734 C337.678737,204.275897 358.522139,213.471857 373.605937,228.309521 C388.678897,243.136523 398,263.597695 398,286.195632 C398,302.882074 394.037344,320.405308 385.745737,334.136576 C378.692712,345.816697 368.498632,354.750297 354.919827,358 L354.919827,358 L95.7780366,358 C82.7967161,354.476362 73.3825825,346.115818 66.9843567,335.344045 C59.3553814,322.500236 56,306.23991 56,290.571147 C56,268.750835 64.5980254,248.885971 78.8294176,235.056843 C92.5736606,221.701095 111.572104,213.983642 133.130088,215.575225 C133.422195,215.596791 133.713586,215.619978 134.002785,215.643561 C134.060447,215.358527 134.119957,215.073462 134.181324,214.788376 C138.301948,195.645498 150.011326,180.040181 165.798305,168.947933 C183.160813,156.748686 205.453811,150 227.206335,150 Z" id="Path-Copy" stroke-opacity="0.404938811" stroke="#000000" stroke-width="2" fill="#FFFFFF"></path>
    </g>
</svg>