<?xml version="1.0" encoding="UTF-8"?>
<svg width="500px" height="500px" viewBox="0 0 500 500" version="1.1" xmlns="http://www.w3.org/2000/svg" xmlns:xlink="http://www.w3.org/1999/xlink">
    <title>9 Gewitter</title>
    <g id="9-Gewitter" stroke="none" stroke-width="1" fill="none" fill-rule="evenodd">
        <path d="M293.203935,108 C331.374803,108 364.318696,130.064755 379.630509,161.963538 C425.692166,162.072614 463,199.002648 463,244.542319 C463,275.781784 449.251819,309.921151 419.548378,317 L163.1728,317 C134.518829,309.251973 123,278.06574 123,248.896999 C123,205.624957 156.334943,169.99768 200.294371,173.265664 C200.512226,173.281859 200.733048,173.266539 200.952072,173.268288 C208.219666,132.818143 251.694855,108 293.203935,108 Z" id="Path" fill="#D8D8D8"></path>
        <path d="M317,174.5 C319.071068,174.5 320.946068,175.339466 322.303301,176.696699 C323.660534,178.053932 324.5,179.928932 324.5,182 L324.5,182 L324.5,295.939973 L339.729125,295.9408 C341.061675,294.727009 342.833366,293.987075 344.777852,293.987075 L344.777852,293.987075 L353.777852,293.987075 C355.402765,293.987075 356.907048,294.503706 358.135186,295.381917 C359.39685,296.284101 360.367387,297.567507 360.877952,299.064013 C361.773326,300.394843 362.261624,301.860599 362.261624,303.440366 L362.261624,303.440366 L362.261624,312.440366 C362.261624,313.791908 361.904295,315.060016 361.278604,316.155143 L361.278604,316.155143 L361.277852,452.487075 C361.277852,454.558143 360.438386,456.433143 359.081153,457.790376 C357.72392,459.147609 355.84892,459.987075 353.777852,459.987075 L353.777852,459.987075 L344.777852,459.987075 C342.706784,459.987075 340.831784,459.147609 339.474551,457.790376 C338.117318,456.433143 337.277852,454.558143 337.277852,452.487072 L337.277852,452.487072 L337.276997,319.939993 L309.761624,319.940366 C308.831908,319.940366 307.941667,319.77134 307.120062,319.462093 C305.160704,319.19095 303.524671,318.273845 302.355079,316.938159 C301.199963,315.619004 300.5,313.891233 300.5,312 L300.5,312 L300.5,182 C300.5,179.928932 301.339466,178.053932 302.696699,176.696699 C304.053932,175.339466 305.928932,174.5 308,174.5 L308,174.5 Z" id="Combined-Shape" stroke="#B1AB7D" fill="#FBEC66" transform="translate(331.380812, 317.243537) scale(-1, 1) rotate(-12.000000) translate(-331.380812, -317.243537) "></path>
        <path d="M142.129559,119 C153.864164,119 164.808639,122.316424 174.03967,128.046445 C183.570487,133.962552 191.275096,142.451031 196.135328,152.51704 C196.226695,152.706269 196.317,152.895939 196.408569,153.084368 C196.616592,153.082455 196.824904,153.081741 197.033499,153.082232 C211.393202,153.116037 224.388985,158.855199 233.793578,168.116119 C243.189215,177.36822 249,190.135915 249,204.237254 C249,214.658389 246.532044,225.60376 241.358789,234.179965 C236.990131,241.422311 230.683551,246.972502 222.27758,249 L222.27758,249 L59.6547101,249 C51.6266711,246.804276 45.80572,241.616053 41.8452117,234.941258 C37.0871434,226.922306 35,216.769269 35,206.987578 C35,193.377396 40.3544779,180.985211 49.2223476,172.358882 C57.779793,164.034522 69.6089168,159.225728 83.0309538,160.217699 C83.3299677,160.239798 83.6277764,160.264629 83.92274,160.291011 C83.9737985,159.998699 84.0281361,159.706285 84.0857843,159.413792 C86.4411699,147.46315 93.8599115,137.731868 103.761949,130.816716 C114.657356,123.207839 128.562021,119 142.129559,119 Z" id="Path-Copy" stroke="#C4C4C4" stroke-width="2" fill="#FFFFFF"></path>
        <path d="M220.5,304 C221.297985,304 222.1455,305.935874 223.267917,307.734086 C225.31731,311.017398 227.683904,315.772028 230.034616,321.017219 C236.025751,334.385356 242,350.970809 242,354.436011 C242,360.391366 239.593083,365.783171 235.700874,369.685978 C231.810631,373.586814 226.43644,376 220.5,376 C214.56356,376 209.189369,373.586814 205.299126,369.685978 C201.406917,365.783171 199,360.391366 199,354.436011 C199,351.618064 202.950562,340.124255 207.648239,328.739693 L208.030706,327.817033 L208.030706,327.817033 L208.416067,326.895893 C209.25388,324.902487 210.109406,322.927107 210.965277,321.017385 C213.316007,315.772154 215.682625,311.017481 217.732039,307.734136 C218.854474,305.935894 219.702005,304 220.5,304 Z" id="Path-Copy-4" stroke="#73B0C5" stroke-width="4" fill="#BDEAFF" transform="translate(220.500000, 340.000000) rotate(-9.000000) translate(-220.500000, -340.000000) "></path>
    </g>
</svg>